#!OML:ASF F:\VICON\USERDATA\INSTALL\rory3\rory3.ASF
:FULLY-SPECIFIED
:DEGREES
39
root 1.0071079470622173 17.986452340629615 9.387448435280014 -2.733437356285216 1.2428216467266768 0.7117501467651017
lfemur 2.087958873612071 -3.051613160022718 -25.738154526753966
ltibia 20.444744217980166
lfoot -15.685997524421882 1.4652508460333795
ltoes -1.7390237297109916
rfemur -24.365038848288435 3.6203562681026042 21.949957578920788
rtibia 61.88023205817932
rfoot -6.887450356055849 -8.841223436913545
rtoes 3.0206599019480267
lowerback -1.0 -0.7697617913476846 -1.8862924785159125
upperback 0.16375712167145973 -1.085844996237612 1.4153932253889414
thorax -6.198736586968303 -0.43026876751650167 3.0193235507075107
lowerneck -16.60009340596677 -3.68033905962699 -2.4990428871672963
upperneck 21.359877100216455 -4.988769818428667 1.7804642794981698
head 9.643181887406183 -2.2708830049544892 0.3124022685392777
lclavicle 1.90354292380685e-15 1.6448543847816513e-15
lhumerus -28.92113523577001 2.198533768786974 81.57287800582107
lradius 26.375248274529635
lwrist 7.808035156569928
lhand -28.928478750308503 20.685414003246482
lfingers nan
lthumb -2.3431724591624157 50.49477197152108
rclavicle 1.5908316415193484e-15 1.41063373278658e-15
rhumerus -31.822343488062398 -20.450580129333265 -78.2274696636028
rradius 32.1045576063895
rwrist -0.6212032019105593
rhand -18.153074133655227 -1.0
rfingers nan
rthumb 8.143897368550336 -6.63490165758627
40
root 0.9752309415380322 17.94159409080831 8.979618427450045 -2.349774654800243 1.7722054297440524 0.7874563344840877
lfemur 4.517761361999466 -3.1528299530978767 -25.651429805265234
ltibia 18.578404796998534
lfoot -15.123739055222185 0.573937277375062
ltoes -2.850789404871197
rfemur -24.105787456838044 4.813018646796241 21.473969765723012
rtibia 51.658777675510784
rfoot -6.966842460955513 -10.445224376123091
rtoes 1.512087583807034
lowerback -1.0 -0.9203452266551726 -2.3828623580428756
upperback 0.21718474364500462 -1.372088260889083 1.4705895840328063
thorax -6.0646781200393605 -0.5689420981039556 3.438959669277163
lowerneck -16.822995882773455 -3.68767368022571 -2.5017817028954403
upperneck 21.258954752891892 -5.014575047812779 1.8871198146088903
head 9.62165556486076 -2.2709553780125624 0.3498662868199719
lclavicle 1.3253281035087818e-15 -6.789123058954513e-17
lhumerus -27.409877880883283 0.7986792466720014 81.78246619138908
lradius 27.300511973837548
lwrist 8.15225333494536
lhand -28.770412361402833 21.54903747608744
lfingers nan
lthumb -2.253435992293491 51.1220276610533
rclavicle 7.188945106768714e-16 -4.047593225920288e-16
rhumerus -32.54909442288709 -20.407523971524046 -78.08678214856509
rradius 32.100407562991734
rwrist -0.6867222706575826
rhand -18.214798821754897 -1.0
rfingers nan
rthumb 8.106106135674171 -6.550359469756255
41
root 0.9396162399345148 17.927508085376544 9.392888552897858 -1.8579765883710802 2.426844560803565 0.7779854308186631
lfemur 7.157845001494233 -2.998426023983104 -25.3860880184173
ltibia 16.589330220361873
lfoot -14.41226320403348 -0.05884517789122201
ltoes -4.676283452733053
rfemur -23.089079254916093 6.964999952452848 20.17031883346805
rtibia 39.536521156403445
rfoot -6.756610321097958 -12.225070860359592
rtoes 1.3343413758387075
lowerback -1.0 -1.07640534059972 -2.7693247258386835
upperback 0.24868048036260693 -1.6454295697646837 1.5270494009621833
thorax -5.934588788119415 -0.7149575662875113 3.7973426209175987
lowerneck -16.987581913946467 -3.6455381460604035 -2.4130456003180636
upperneck 21.210315883623363 -4.956031051063042 1.913225316388391
head 9.601563715095544 -2.2448455548871333 0.3749551055856065
lclavicle 6.36120268376789e-16 -5.704157247684769e-16
lhumerus -26.15145114669886 -0.5230432133588381 81.86438567987234
lradius 28.30465585529797
lwrist 8.474370247687812
lhand -28.4909103600627 22.520130047499055
lfingers nan
lthumb -2.0863131959682892 51.771058687199016
rclavicle 3.555365971613864e-16 -7.270834632168235e-16
rhumerus -33.29908856853889 -20.59194732516684 -77.8585053337992
rradius 31.739327502147308
rwrist -0.3128140500136696
rhand -18.295272707802983 -1.0
rfingers nan
rthumb 8.056454366880411 -6.628328536094083
42
root 0.8899232990121269 17.94329563480947 9.123208612006664 -1.33497087571979 3.069245862018926 0.7133618782630435
lfemur 9.613495515994817 -2.8892234785177764 -25.022130718245656
ltibia 15.499318739814576
lfoot -13.678256091009008 -0.9661586122207417
ltoes -7.2282986415301895
rfemur -22.68274416966178 8.386736380902121 18.829793387042642
rtibia 28.404321609384574
rfoot -8.105994882224296 -14.161838571881205
rtoes 0.552235946689104
lowerback -1.0 -1.1821050334283822 -2.9439131133925107
upperback 0.3081204509158023 -1.7669301451490995 1.5939254954807258
thorax -5.760060260958997 -0.7833862504832296 4.046534318361761
lowerneck -17.173820015602974 -3.5647574424038564 -2.3628826996840866
upperneck 21.247503810211864 -4.835824904833489 1.8706998366211396
head 9.601866770794128 -2.198787940008163 0.3683951564356728
lclavicle 8.875222600703864e-16 -4.528801576447959e-16
lhumerus -25.15204237230161 -1.5265345530173415 81.87974653974469
lradius 29.33290495374481
lwrist 8.806407671532709
lhand -28.51807961821742 22.95906281122492
lfingers nan
lthumb -2.125178424902393 52.0824126716178
rclavicle 6.741842860956985e-16 -5.796416423781684e-16
rhumerus -34.21080390040672 -21.085493028095208 -77.39904306734363
rradius 31.156967788085378
rwrist 0.28696695964085484
rhand -18.319293980508025 -1.0
rfingers nan
rthumb 7.982612151039958 -6.674527338031901
